<svg width="50" height="50" viewBox="0 0 50 50" fill="none" xmlns="http://www.w3.org/2000/svg">
<path d="M49.2188 24.9542C49.2435 38.298 38.3613 49.2093 25.0176 49.2187C19.2544 49.2228 13.9606 47.2138 9.80059 43.8563C8.71885 42.9832 8.63799 41.362 9.621 40.379L10.7213 39.2787C11.562 38.438 12.9042 38.346 13.8356 39.085C16.9006 41.5171 20.7794 42.9688 25 42.9688C34.9321 42.9688 42.9688 34.9306 42.9688 25C42.9688 15.0679 34.9306 7.03125 25 7.03125C20.233 7.03125 15.9034 8.88369 12.6887 11.9074L17.6451 16.8639C18.6295 17.8482 17.9323 19.5312 16.5403 19.5312H2.34375C1.48076 19.5312 0.78125 18.8317 0.78125 17.9688V3.77217C0.78125 2.38018 2.46426 1.68301 3.44863 2.66729L8.27012 7.48877C12.6181 3.33359 18.5109 0.78125 25 0.78125C38.3604 0.78125 49.194 11.5996 49.2188 24.9542ZM31.5516 32.6479L32.5108 31.4146C33.3056 30.3928 33.1215 28.9202 32.0997 28.1256L28.125 25.0341V14.8438C28.125 13.5493 27.0757 12.5 25.7813 12.5H24.2188C22.9243 12.5 21.875 13.5493 21.875 14.8438V28.0909L28.2626 33.0591C29.2844 33.8537 30.7568 33.6697 31.5516 32.6479Z" fill="white"/>
</svg>
