<svg width="497" height="386" viewBox="0 0 497 386" fill="none" xmlns="http://www.w3.org/2000/svg">
<g clip-path="url(#clip0)">
<path d="M282.702 188.537C293.874 188.537 302.931 179.48 302.931 168.308C302.931 157.136 293.874 148.08 282.702 148.08C271.53 148.08 262.474 157.136 262.474 168.308C262.474 179.48 271.53 188.537 282.702 188.537Z" fill="#E6E6E6"/>
<path d="M332.279 194.303L311.139 173.164C312.76 170.643 313.858 167.823 314.368 164.871C314.879 161.918 314.792 158.894 314.112 155.975C313.432 153.057 312.174 150.305 310.411 147.882C308.648 145.459 306.417 143.415 303.849 141.87C299.015 138.982 293.272 138.015 287.758 139.161C282.245 140.306 277.362 143.48 274.078 148.055C271.056 152.292 269.605 157.45 269.973 162.641C270.342 167.833 272.508 172.734 276.098 176.501C279.689 180.269 284.48 182.668 289.648 183.286C294.816 183.905 300.037 182.703 304.415 179.888L325.554 201.028C326.446 201.918 327.655 202.419 328.916 202.418C330.177 202.418 331.386 201.917 332.277 201.026C333.168 200.134 333.669 198.925 333.67 197.665C333.67 196.404 333.17 195.195 332.279 194.303ZM303.626 172.375C301.006 174.994 297.56 176.624 293.873 176.987C290.187 177.35 286.489 176.424 283.409 174.366C280.329 172.308 278.058 169.246 276.982 165.701C275.907 162.156 276.094 158.348 277.511 154.926C278.929 151.504 281.489 148.679 284.756 146.933C288.023 145.186 291.794 144.627 295.427 145.35C299.061 146.072 302.331 148.032 304.681 150.896C307.031 153.759 308.315 157.349 308.315 161.053C308.318 163.156 307.905 165.239 307.1 167.182C306.295 169.125 305.115 170.889 303.626 172.375Z" fill="#3F3D56"/>
<path d="M485.514 225.484C539.575 285.27 382.861 371.43 256.233 371.43C129.604 371.43 41.997 304.671 26.9515 225.484C-9.52888 33.483 337.773 -88.552 256.233 79.5389C137.379 324.551 442.94 178.402 485.514 225.484Z" fill="#E6E6E6"/>
<path d="M461.258 239.634C515.319 299.42 358.605 385.579 231.977 385.579C105.348 385.579 17.7409 318.821 2.6953 239.634C-33.7851 47.6325 313.517 -74.4025 231.977 93.6883C113.122 338.7 418.684 192.551 461.258 239.634Z" fill="#2E384D"/>
<path d="M75.5953 99.4631C37.661 97.7928 8.2484 89.6101 8.63481 80.8342C8.86647 75.5727 19.6023 71.3418 38.0893 69.2268C38.1554 69.2188 38.2225 69.224 38.2867 69.242C38.3509 69.26 38.4108 69.2905 38.4631 69.3318C38.5154 69.3731 38.5591 69.4243 38.5915 69.4826C38.624 69.5408 38.6445 69.6048 38.6521 69.6711C38.6597 69.7373 38.6541 69.8043 38.6357 69.8684C38.6172 69.9324 38.5863 69.9922 38.5446 70.0442C38.503 70.0963 38.4515 70.1395 38.393 70.1716C38.3346 70.2036 38.2704 70.2238 38.2041 70.2309C20.7894 72.2235 9.84595 76.3034 9.64449 80.8786C9.29506 88.8147 39.5171 96.8629 75.6398 98.4534C111.762 100.044 142.575 94.6831 142.924 86.747C143.127 82.1526 132.516 77.1125 115.233 73.5939C115.168 73.5808 115.106 73.555 115.051 73.5179C114.995 73.4809 114.948 73.4333 114.911 73.3779C114.875 73.3225 114.849 73.2603 114.836 73.1951C114.824 73.1298 114.824 73.0627 114.837 72.9975C114.85 72.9324 114.876 72.8705 114.914 72.8154C114.951 72.7603 114.999 72.7131 115.054 72.6765C115.11 72.6399 115.172 72.6146 115.237 72.6021C115.302 72.5895 115.37 72.59 115.435 72.6035C133.779 76.3382 144.167 81.5095 143.934 86.7915C143.548 95.5674 113.53 101.133 75.5953 99.4631Z" fill="white"/>
<path d="M41.9041 100.933C45.0775 106.961 49.7784 112.051 55.5365 115.692C61.2946 119.333 67.9079 121.398 74.7148 121.681C81.5216 121.963 88.2833 120.453 94.3233 117.302C100.363 114.15 105.47 109.468 109.132 103.723C86.6885 104.026 64.2453 103.094 41.9041 100.933Z" fill="white"/>
<path d="M113.328 93.0935C115.238 87.3649 115.788 81.2704 114.936 75.2924C114.083 69.3143 111.85 63.6168 108.415 58.6508C104.979 53.6847 100.435 49.5864 95.142 46.6803C89.8487 43.7741 83.9517 42.1399 77.9176 41.9069C71.8836 41.6738 65.8781 42.8485 60.3765 45.3377C54.8748 47.827 50.0281 51.5627 46.2199 56.249C42.4117 60.9353 39.7464 66.4437 38.4352 72.3382C37.1239 78.2327 37.2026 84.3514 38.665 90.2103C63.3233 94.3962 88.4206 95.3654 113.328 93.0935Z" fill="white"/>
<path d="M85.3178 67.0081C87.8296 67.0081 89.8659 64.9718 89.8659 62.46C89.8659 59.9482 87.8296 57.912 85.3178 57.912C82.806 57.912 80.7698 59.9482 80.7698 62.46C80.7698 64.9718 82.806 67.0081 85.3178 67.0081Z" fill="white"/>
<path d="M61.9106 84.6901C66.097 84.6901 69.4907 81.2964 69.4907 77.1101C69.4907 72.9237 66.097 69.53 61.9106 69.53C57.7243 69.53 54.3306 72.9237 54.3306 77.1101C54.3306 81.2964 57.7243 84.6901 61.9106 84.6901Z" fill="white"/>
<path d="M176.315 77.2649C179.105 77.2649 181.368 75.0025 181.368 72.2117C181.368 69.4209 179.105 67.1584 176.315 67.1584C173.524 67.1584 171.261 69.4209 171.261 72.2117C171.261 75.0025 173.524 77.2649 176.315 77.2649Z" fill="white"/>
<path d="M62.1084 231.898C63.7829 231.898 65.1404 230.541 65.1404 228.866C65.1404 227.192 63.7829 225.834 62.1084 225.834C60.4338 225.834 59.0763 227.192 59.0763 228.866C59.0763 230.541 60.4338 231.898 62.1084 231.898Z" fill="#E6E6E6"/>
<path d="M274.35 335.998C276.025 335.998 277.382 334.64 277.382 332.966C277.382 331.291 276.025 329.934 274.35 329.934C272.675 329.934 271.318 331.291 271.318 332.966C271.318 334.64 272.675 335.998 274.35 335.998Z" fill="#E6E6E6"/>
<path d="M76.7631 173.279C77.6004 173.279 78.2792 172.6 78.2792 171.763C78.2792 170.926 77.6004 170.247 76.7631 170.247C75.9258 170.247 75.2471 170.926 75.2471 171.763C75.2471 172.6 75.9258 173.279 76.7631 173.279Z" fill="#E6E6E6"/>
<path d="M202.087 286.475C202.924 286.475 203.603 285.796 203.603 284.959C203.603 284.121 202.924 283.443 202.087 283.443C201.249 283.443 200.571 284.121 200.571 284.959C200.571 285.796 201.249 286.475 202.087 286.475Z" fill="#E6E6E6"/>
<path d="M429.994 271.82C430.831 271.82 431.51 271.141 431.51 270.304C431.51 269.467 430.831 268.788 429.994 268.788C429.156 268.788 428.478 269.467 428.478 270.304C428.478 271.141 429.156 271.82 429.994 271.82Z" fill="#E6E6E6"/>
<path d="M358.741 316.795C359.579 316.795 360.257 316.116 360.257 315.279C360.257 314.442 359.579 313.763 358.741 313.763C357.904 313.763 357.225 314.442 357.225 315.279C357.225 316.116 357.904 316.795 358.741 316.795Z" fill="#E6E6E6"/>
<path d="M284.457 262.219C285.294 262.219 285.973 261.54 285.973 260.702C285.973 259.865 285.294 259.186 284.457 259.186C283.619 259.186 282.941 259.865 282.941 260.702C282.941 261.54 283.619 262.219 284.457 262.219Z" fill="#E6E6E6"/>
<path d="M188.443 112.639C189.28 112.639 189.959 111.96 189.959 111.123C189.959 110.285 189.28 109.607 188.443 109.607C187.605 109.607 186.927 110.285 186.927 111.123C186.927 111.96 187.605 112.639 188.443 112.639Z" fill="#E6E6E6"/>
<path d="M200.571 37.8489C201.408 37.8489 202.087 37.1701 202.087 36.3328C202.087 35.4955 201.408 34.8168 200.571 34.8168C199.733 34.8168 199.055 35.4955 199.055 36.3328C199.055 37.1701 199.733 37.8489 200.571 37.8489Z" fill="#E6E6E6"/>
<path d="M193.496 352.674C194.333 352.674 195.012 351.995 195.012 351.158C195.012 350.321 194.333 349.642 193.496 349.642C192.659 349.642 191.98 350.321 191.98 351.158C191.98 351.995 192.659 352.674 193.496 352.674Z" fill="#E6E6E6"/>
<path d="M118.706 320.838C119.543 320.838 120.222 320.159 120.222 319.322C120.222 318.484 119.543 317.806 118.706 317.806C117.869 317.806 117.19 318.484 117.19 319.322C117.19 320.159 117.869 320.838 118.706 320.838Z" fill="#E6E6E6"/>
<path d="M355.709 266.261C356.547 266.261 357.225 265.582 357.225 264.745C357.225 263.908 356.547 263.229 355.709 263.229C354.872 263.229 354.193 263.908 354.193 264.745C354.193 265.582 354.872 266.261 355.709 266.261Z" fill="#E6E6E6"/>
<path d="M74.9787 118.147C77.4905 118.147 79.5268 116.111 79.5268 113.599C79.5268 111.087 77.4905 109.051 74.9787 109.051C72.4669 109.051 70.4307 111.087 70.4307 113.599C70.4307 116.111 72.4669 118.147 74.9787 118.147Z" fill="white"/>
<path d="M412.786 160.657C412.658 160.905 412.55 161.163 412.462 161.429L388.316 168.138L383.964 163.88L376.68 169.607L383.65 177.894C384.213 178.564 384.979 179.032 385.831 179.23C386.683 179.428 387.576 179.343 388.377 178.99L414.46 167.476C415.345 168.09 416.396 168.421 417.473 168.423C418.55 168.425 419.603 168.1 420.491 167.489C421.378 166.879 422.059 166.013 422.442 165.006C422.826 164 422.893 162.9 422.637 161.854C422.38 160.808 421.811 159.865 421.005 159.15C420.199 158.435 419.194 157.983 418.125 157.853C417.056 157.723 415.972 157.921 415.018 158.422C414.065 158.923 413.286 159.702 412.786 160.657H412.786Z" fill="#FFB8B8"/>
<path d="M387.465 168.531L378.402 175.586C378.144 175.786 377.846 175.929 377.528 176.004C377.21 176.079 376.879 176.085 376.559 176.021C376.238 175.957 375.935 175.824 375.671 175.633C375.406 175.441 375.186 175.195 375.025 174.91L369.392 164.941C368.373 163.616 367.92 161.94 368.134 160.282C368.348 158.624 369.21 157.118 370.533 156.095C371.856 155.071 373.53 154.614 375.189 154.824C376.848 155.034 378.356 155.892 379.383 157.212L387.639 165.092C387.875 165.318 388.06 165.592 388.181 165.896C388.302 166.199 388.356 166.525 388.339 166.852C388.323 167.178 388.236 167.497 388.085 167.787C387.934 168.077 387.723 168.331 387.465 168.531V168.531Z" fill="white"/>
<path d="M415.102 157.32L424.293 161.455C424.678 161.628 424.978 161.947 425.128 162.342C425.277 162.736 425.264 163.174 425.091 163.559L424.003 165.978C424.131 166.036 424.231 166.142 424.281 166.274C424.33 166.405 424.326 166.551 424.269 166.679L423.834 167.647C423.776 167.775 423.669 167.875 423.538 167.924C423.407 167.974 423.261 167.97 423.132 167.913L422.697 168.88C422.825 168.938 422.925 169.045 422.975 169.176C423.025 169.308 423.02 169.453 422.963 169.582L422.528 170.549C422.47 170.677 422.364 170.777 422.232 170.827C422.101 170.877 421.955 170.873 421.827 170.815L415.95 183.876C415.777 184.261 415.458 184.562 415.064 184.711C414.669 184.861 414.231 184.848 413.846 184.675L404.655 180.54C404.27 180.366 403.97 180.047 403.82 179.653C403.67 179.258 403.684 178.82 403.857 178.435L412.998 158.118C413.171 157.733 413.49 157.433 413.884 157.283C414.279 157.134 414.717 157.147 415.102 157.32Z" fill="#3F3D56"/>
<path d="M406.324 179.253L413.697 182.573C414.067 182.738 414.486 182.751 414.865 182.608C415.244 182.465 415.55 182.178 415.718 181.809L419.124 174.235L420.306 171.609L423.388 164.755C423.553 164.387 423.565 163.968 423.422 163.59C423.279 163.213 422.992 162.907 422.625 162.74L420.306 161.695L415.246 159.419C414.877 159.254 414.457 159.243 414.079 159.387C413.701 159.531 413.396 159.819 413.23 160.188L410.249 166.814L406.854 174.357L405.56 177.237C405.395 177.606 405.383 178.025 405.526 178.403C405.669 178.78 405.956 179.086 406.324 179.253Z" fill="#F2F2F2"/>
<path d="M390.917 273.106L397.113 273.105L400.06 249.209L390.916 249.21L390.917 273.106Z" fill="#FFB8B8"/>
<path d="M389.337 271.083L401.538 271.083H401.538C402.559 271.083 403.571 271.284 404.514 271.674C405.457 272.065 406.314 272.638 407.036 273.36C407.758 274.082 408.331 274.939 408.722 275.882C409.113 276.826 409.314 277.837 409.314 278.858V279.111L389.337 279.111L389.337 271.083Z" fill="#2F2E41"/>
<path d="M407.088 271.59L413.283 271.589L416.231 247.693L407.087 247.694L407.088 271.59Z" fill="#FFB8B8"/>
<path d="M405.508 269.567L417.709 269.567H417.709C418.73 269.567 419.741 269.768 420.685 270.159C421.628 270.549 422.485 271.122 423.207 271.844C423.929 272.566 424.502 273.423 424.893 274.366C425.283 275.31 425.485 276.321 425.485 277.342V277.595L405.508 277.595L405.508 269.567Z" fill="#2F2E41"/>
<path d="M363.128 217.031C364.448 220.944 366.951 224.35 370.292 226.777C373.633 229.204 377.645 230.533 381.775 230.579L382.088 230.584C385.287 230.675 389.041 229.645 392.725 228.164C400.002 225.238 406.991 220.553 408.845 219.265L405.702 249.479L404.429 261.728C404.397 262.045 404.431 262.365 404.53 262.668C404.629 262.971 404.791 263.249 405.004 263.486C405.217 263.723 405.478 263.912 405.769 264.042C406.059 264.172 406.374 264.239 406.693 264.24H414.541C415.044 264.24 415.533 264.074 415.932 263.766C416.33 263.459 416.616 263.029 416.744 262.542L429.701 213.196C430.089 211.719 430.121 210.17 429.792 208.679C429.463 207.187 428.784 205.796 427.811 204.619C426.837 203.442 425.598 202.514 424.194 201.911C422.791 201.309 421.264 201.049 419.741 201.154L392.826 202.998L394.706 195.479L370.682 193.882L370.612 193.932C370.036 194.352 369.475 194.791 368.939 195.251C367.6 196.384 366.412 197.685 365.407 199.122C363.607 201.701 362.46 204.677 362.063 207.796C361.666 210.915 362.032 214.084 363.128 217.031Z" fill="#2F2E41"/>
<path d="M363.128 217.031C364.448 220.944 366.951 224.35 370.292 226.777C373.633 229.204 377.645 230.533 381.775 230.579C385.723 228.581 389.533 226.32 393.18 223.813L392.725 228.164L388.763 266.276C388.731 266.593 388.766 266.913 388.865 267.216C388.964 267.519 389.125 267.797 389.339 268.034C389.552 268.271 389.812 268.46 390.103 268.59C390.394 268.72 390.709 268.787 391.027 268.788H398.875C399.378 268.788 399.868 268.622 400.266 268.314C400.665 268.007 400.95 267.577 401.078 267.09L405.702 249.479L414.035 217.744C414.424 216.267 414.455 214.718 414.127 213.227C413.798 211.735 413.119 210.344 412.145 209.167C411.172 207.99 409.932 207.062 408.529 206.459C407.125 205.857 405.599 205.597 404.075 205.702L377.161 207.546L379.041 200.027L365.407 199.122C363.607 201.701 362.46 204.677 362.063 207.796C361.666 210.915 362.032 214.084 363.128 217.031Z" fill="#2F2E41"/>
<path d="M368.905 196.994L368.724 196.973L364.532 176.363C364.496 176.184 361.069 158.406 371.575 149.113L371.758 147.841C371.805 147.515 371.921 147.204 372.1 146.928C372.279 146.652 372.516 146.418 372.794 146.242C373.072 146.066 373.385 145.953 373.711 145.91C374.037 145.867 374.368 145.895 374.682 145.992L384.579 149.062C385.139 149.235 385.611 149.617 385.895 150.13C386.18 150.642 386.255 151.245 386.105 151.812L385.143 155.471C386.477 157.038 402.18 175.944 396.71 190.509L394.26 200.086L368.905 196.994Z" fill="white"/>
<path d="M409.999 180.909C409.762 181.058 409.538 181.225 409.327 181.41L385.123 174.912L383.541 169.033L374.356 170.261L376.146 180.941C376.29 181.804 376.711 182.597 377.344 183.2C377.978 183.804 378.79 184.185 379.659 184.288L407.974 187.633C408.423 188.612 409.161 189.43 410.087 189.98C411.013 190.53 412.085 190.784 413.16 190.71C414.234 190.635 415.261 190.236 416.103 189.564C416.945 188.892 417.562 187.979 417.873 186.948C418.184 185.916 418.173 184.815 417.842 183.79C417.512 182.764 416.877 181.864 416.022 181.209C415.167 180.553 414.133 180.173 413.057 180.12C411.981 180.066 410.915 180.342 409.999 180.909H409.999Z" fill="#FFB8B8"/>
<path d="M384.19 174.818L372.799 176.285C372.475 176.327 372.146 176.299 371.834 176.202C371.522 176.105 371.235 175.941 370.991 175.723C370.748 175.505 370.554 175.237 370.424 174.938C370.294 174.638 370.229 174.314 370.235 173.987L370.453 162.539C370.248 160.879 370.711 159.207 371.738 157.887C372.765 156.568 374.273 155.71 375.932 155.501C377.591 155.293 379.265 155.75 380.587 156.774C381.909 157.797 382.771 159.304 382.985 160.962L386.088 171.945C386.177 172.26 386.197 172.589 386.147 172.912C386.097 173.235 385.977 173.544 385.797 173.816C385.617 174.089 385.38 174.319 385.103 174.492C384.826 174.665 384.515 174.776 384.19 174.818Z" fill="white"/>
<path d="M380.984 143.195C387.839 143.195 393.396 137.638 393.396 130.783C393.396 123.928 387.839 118.372 380.984 118.372C374.129 118.372 368.572 123.928 368.572 130.783C368.572 137.638 374.129 143.195 380.984 143.195Z" fill="#FFB8B8"/>
<path d="M380.331 131.82L378.777 128.99C375.834 140.983 381.033 150.908 381.033 150.908L360.854 141.508L361.046 138.173L359.049 140.439L356.18 138.858L355.801 136.695L353.635 137.231L361.541 122.886C369.213 109.235 380.367 114.447 380.367 114.447C398.112 113.603 395.945 131.111 395.945 131.111L380.331 131.82Z" fill="#2F2E41"/>
<path d="M239.045 224.312C241.906 222.478 238.426 211.944 231.272 200.783C224.117 189.623 215.998 182.063 213.136 183.897C210.274 185.732 213.754 196.266 220.909 207.426C228.063 218.587 236.183 226.147 239.045 224.312Z" fill="#3F3D56"/>
</g>
<defs>
<clipPath id="clip0">
<rect width="496.487" height="385.579" fill="white"/>
</clipPath>
</defs>
</svg>
